<?xml version="1.0" encoding="UTF-8" standalone="no"?>
<!-- Created with Inkscape (http://www.inkscape.org/) -->

<svg
   width="34.715794mm"
   height="24.362007mm"
   viewBox="0 0 34.715794 24.362008"
   version="1.1"
   id="svg63529"
   inkscape:version="1.2.1 (9c6d41e410, 2022-07-14, custom)"
   sodipodi:docname="arrow-vr.svg"
   xmlns:inkscape="http://www.inkscape.org/namespaces/inkscape"
   xmlns:sodipodi="http://sodipodi.sourceforge.net/DTD/sodipodi-0.dtd"
   xmlns="http://www.w3.org/2000/svg"
   xmlns:svg="http://www.w3.org/2000/svg">
  <sodipodi:namedview
     id="namedview63531"
     pagecolor="#ffffff"
     bordercolor="#666666"
     borderopacity="1.0"
     inkscape:showpageshadow="2"
     inkscape:pageopacity="0.0"
     inkscape:pagecheckerboard="0"
     inkscape:deskcolor="#d1d1d1"
     inkscape:document-units="mm"
     showgrid="false"
     showborder="true"
     inkscape:zoom="5.986532"
     inkscape:cx="77.089708"
     inkscape:cy="25.306805"
     inkscape:window-width="1920"
     inkscape:window-height="1049"
     inkscape:window-x="0"
     inkscape:window-y="0"
     inkscape:window-maximized="1"
     inkscape:current-layer="g65861" />
  <defs
     id="defs63526">
    <marker
       style="overflow:visible"
       id="TriangleStart"
       refX="0"
       refY="0"
       orient="auto-start-reverse"
       inkscape:stockid="TriangleStart"
       markerWidth="4.3239999"
       markerHeight="4.1550002"
       viewBox="0 0 5.3244081 6.1553851"
       inkscape:isstock="true"
       inkscape:collect="always"
       preserveAspectRatio="none">
      <path
         transform="scale(0.5)"
         style="fill:context-stroke;fill-rule:evenodd;stroke:context-stroke;stroke-width:1pt"
         d="M 5.77,0 -2.88,5 V -5 Z"
         id="path135" />
    </marker>
  </defs>
  <g
     inkscape:label="Layer 1"
     inkscape:groupmode="layer"
     id="layer1"
     transform="translate(-32.670351,-106.99044)">
    <g
       id="g65861">
      <g
         aria-label="Click to see 
cover in VR!"
         id="text63535"
         style="font-size:5.64444px;line-height:0.95;font-family:'TeX Gyre Chorus';-inkscape-font-specification:'TeX Gyre Chorus';letter-spacing:0px;word-spacing:0px;stroke-width:0.264583">
        <path
           d="m 41.571287,123.12003 q 0.04516,0 0.07902,0.0367 l 0.217311,0.23424 q -0.248356,0.28787 -0.603956,0.44874 -0.352777,0.16086 -0.855132,0.16086 -0.434622,0 -0.790222,-0.14958 -0.3556,-0.1524 -0.606777,-0.42333 -0.251178,-0.27375 -0.389467,-0.65475 -0.138288,-0.381 -0.138288,-0.8382 0,-0.4572 0.143933,-0.8382 0.143933,-0.381 0.403577,-0.65476 0.262467,-0.27375 0.626533,-0.42333 0.364067,-0.1524 0.804333,-0.1524 0.4318,0 0.761999,0.13829 0.3302,0.13829 0.581378,0.37535 l -0.180622,0.25118 q -0.01693,0.0282 -0.04516,0.048 -0.0254,0.0169 -0.07055,0.0169 -0.0508,0 -0.124178,-0.0536 -0.07338,-0.0564 -0.191911,-0.12418 -0.118533,-0.0677 -0.296333,-0.12135 -0.1778,-0.0564 -0.437444,-0.0564 -0.313267,0 -0.572911,0.11007 -0.259644,0.10724 -0.448733,0.31327 -0.186267,0.20602 -0.290689,0.50235 -0.104422,0.29633 -0.104422,0.66887 0,0.37817 0.107245,0.67451 0.110066,0.29633 0.296333,0.50235 0.189088,0.2032 0.443088,0.31045 0.256822,0.10724 0.553155,0.10724 0.180622,0 0.324556,-0.0198 0.146755,-0.0226 0.268111,-0.0677 0.124177,-0.0452 0.228599,-0.11289 0.107245,-0.0705 0.211667,-0.16651 0.04798,-0.0423 0.09595,-0.0423 z"
           style="font-family:Lato;-inkscape-font-specification:Lato"
           id="path66429" />
        <path
           d="m 42.903371,119.79828 v 4.15713 h -0.502355 v -4.15713 z"
           style="font-family:Lato;-inkscape-font-specification:Lato"
           id="path66431" />
        <path
           d="m 44.246748,121.0965 v 2.85891 h -0.502355 v -2.85891 z m 0.107245,-0.89747 q 0,0.0734 -0.03105,0.13829 -0.02822,0.0621 -0.07902,0.11289 -0.04798,0.048 -0.115711,0.0762 -0.06491,0.0282 -0.138289,0.0282 -0.07338,0 -0.138289,-0.0282 -0.06209,-0.0282 -0.110066,-0.0762 -0.04798,-0.0508 -0.0762,-0.11289 -0.02822,-0.0649 -0.02822,-0.13829 0,-0.0734 0.02822,-0.13829 0.02822,-0.0677 0.0762,-0.11571 0.04798,-0.0508 0.110066,-0.079 0.06491,-0.0282 0.138289,-0.0282 0.07338,0 0.138289,0.0282 0.06773,0.0282 0.115711,0.079 0.0508,0.048 0.07902,0.11571 0.03105,0.0649 0.03105,0.13829 z"
           style="font-family:Lato;-inkscape-font-specification:Lato"
           id="path66433" />
        <path
           d="m 47.0605,121.6045 q -0.02258,0.031 -0.04515,0.048 -0.02258,0.0169 -0.06209,0.0169 -0.04233,0 -0.09313,-0.0339 -0.0508,-0.0367 -0.127,-0.079 -0.07338,-0.0423 -0.183445,-0.0762 -0.107244,-0.0367 -0.265288,-0.0367 -0.211667,0 -0.372533,0.0762 -0.160867,0.0734 -0.270933,0.21449 -0.107245,0.14111 -0.163689,0.34149 -0.05362,0.20038 -0.05362,0.44873 0,0.25964 0.05927,0.46284 0.05927,0.20038 0.166511,0.33867 0.110067,0.13547 0.262467,0.20885 0.155222,0.0706 0.347133,0.0706 0.183444,0 0.301977,-0.0423 0.118534,-0.0452 0.194734,-0.0988 0.07902,-0.0536 0.129822,-0.096 0.05362,-0.0452 0.104422,-0.0452 0.06209,0 0.09596,0.048 l 0.141111,0.18344 q -0.09313,0.11571 -0.211666,0.19756 -0.118533,0.0818 -0.256822,0.13829 -0.135467,0.0536 -0.285044,0.079 -0.149578,0.0254 -0.3048,0.0254 -0.268111,0 -0.499533,-0.0988 -0.2286,-0.0988 -0.397933,-0.28504 -0.169333,-0.18909 -0.265289,-0.46285 -0.09596,-0.27375 -0.09596,-0.62371 0,-0.31891 0.08749,-0.58984 0.09031,-0.27094 0.259645,-0.46567 0.172155,-0.19756 0.42051,-0.30762 0.251178,-0.11007 0.575733,-0.11007 0.301978,0 0.530578,0.0988 0.231422,0.096 0.409222,0.27375 z"
           style="font-family:Lato;-inkscape-font-specification:Lato"
           id="path66435" />
        <path
           d="m 48.271238,119.79828 v 2.44686 h 0.129822 q 0.05644,0 0.09313,-0.0141 0.03951,-0.0169 0.08184,-0.0649 l 0.90311,-0.96802 q 0.03951,-0.048 0.08185,-0.0734 0.04515,-0.0282 0.118533,-0.0282 h 0.454378 l -1.052689,1.12042 q -0.0762,0.096 -0.163688,0.14958 0.0508,0.0339 0.09031,0.079 0.04233,0.0423 0.07902,0.0988 l 1.117599,1.41111 h -0.448733 q -0.06491,0 -0.112889,-0.0198 -0.04516,-0.0226 -0.07902,-0.079 l -0.939799,-1.17122 q -0.04233,-0.0593 -0.08467,-0.0762 -0.03951,-0.0198 -0.124178,-0.0198 h -0.143933 v 1.36596 h -0.505177 v -4.15713 z"
           style="font-family:Lato;-inkscape-font-specification:Lato"
           id="path66437" />
        <path
           d="m 52.956123,124.00056 q -0.338667,0 -0.522111,-0.18909 -0.180622,-0.18909 -0.180622,-0.54469 v -1.74977 h -0.344311 q -0.04516,0 -0.0762,-0.0254 -0.03104,-0.0282 -0.03104,-0.0847 v -0.20038 l 0.468488,-0.0593 0.115711,-0.88336 q 0.0085,-0.0423 0.03669,-0.0677 0.03104,-0.0282 0.07902,-0.0282 h 0.254 v 0.98495 h 0.82691 v 0.36407 h -0.82691 v 1.71591 q 0,0.18062 0.08749,0.26811 0.08749,0.0875 0.225777,0.0875 0.07902,0 0.135467,-0.0198 0.05927,-0.0226 0.1016,-0.048 0.04233,-0.0254 0.07055,-0.0452 0.03104,-0.0226 0.05362,-0.0226 0.03951,0 0.07055,0.048 l 0.146755,0.23989 q -0.129822,0.12135 -0.313266,0.19191 -0.183444,0.0677 -0.378177,0.0677 z"
           style="font-family:Lato;-inkscape-font-specification:Lato"
           id="path66439" />
        <path
           d="m 55.292915,121.05134 q 0.313266,0 0.564444,0.10442 0.251177,0.10443 0.428977,0.29634 0.1778,0.19191 0.270933,0.46566 0.09596,0.27094 0.09596,0.60678 0,0.33867 -0.09596,0.6096 -0.09313,0.27093 -0.270933,0.46284 -0.1778,0.19192 -0.428977,0.29634 -0.251178,0.1016 -0.564444,0.1016 -0.316089,0 -0.570089,-0.1016 -0.251177,-0.10442 -0.428977,-0.29634 -0.1778,-0.19191 -0.273756,-0.46284 -0.09313,-0.27093 -0.09313,-0.6096 0,-0.33584 0.09313,-0.60678 0.09596,-0.27375 0.273756,-0.46566 0.1778,-0.19191 0.428977,-0.29634 0.254,-0.10442 0.570089,-0.10442 z m 0,2.55129 q 0.423333,0 0.632177,-0.28222 0.208844,-0.28505 0.208844,-0.79305 0,-0.51082 -0.208844,-0.79586 -0.208844,-0.28505 -0.632177,-0.28505 -0.214489,0 -0.375356,0.0734 -0.158044,0.0734 -0.265288,0.21167 -0.104422,0.13829 -0.158045,0.34149 -0.0508,0.20037 -0.0508,0.45437 0,0.508 0.208845,0.79305 0.211666,0.28222 0.640644,0.28222 z"
           style="font-family:Lato;-inkscape-font-specification:Lato"
           id="path66441" />
        <path
           d="m 60.398311,121.56781 q -0.03387,0.0621 -0.104422,0.0621 -0.04233,0 -0.09596,-0.0311 -0.05362,-0.031 -0.132644,-0.0677 -0.0762,-0.0395 -0.183444,-0.0706 -0.107245,-0.0339 -0.254,-0.0339 -0.127,0 -0.2286,0.0339 -0.1016,0.031 -0.174978,0.0875 -0.07055,0.0564 -0.110066,0.13265 -0.03669,0.0734 -0.03669,0.16086 0,0.11007 0.06209,0.18345 0.06491,0.0734 0.169333,0.127 0.104422,0.0536 0.237066,0.096 0.132645,0.0395 0.270934,0.0875 0.141111,0.0452 0.273755,0.1016 0.132644,0.0564 0.237066,0.14111 0.104423,0.0847 0.166511,0.20885 0.06491,0.12135 0.06491,0.29351 0,0.19755 -0.07055,0.36689 -0.07056,0.16651 -0.208844,0.29069 -0.138289,0.12135 -0.338667,0.19191 -0.200377,0.0705 -0.462844,0.0705 -0.299155,0 -0.541866,-0.0959 -0.242711,-0.0988 -0.412044,-0.25118 l 0.118533,-0.19191 q 0.02258,-0.0367 0.05362,-0.0564 0.03104,-0.0198 0.07902,-0.0198 0.0508,0 0.107245,0.0395 0.05644,0.0395 0.135466,0.0875 0.08185,0.048 0.197556,0.0875 0.115711,0.0395 0.287866,0.0395 0.146756,0 0.256822,-0.0367 0.110067,-0.0395 0.183444,-0.10442 0.07338,-0.0649 0.107245,-0.14958 0.03669,-0.0847 0.03669,-0.18062 0,-0.11854 -0.06491,-0.19474 -0.06209,-0.079 -0.166511,-0.13264 -0.104422,-0.0564 -0.239889,-0.096 -0.132644,-0.0423 -0.273755,-0.0875 -0.138289,-0.0451 -0.273756,-0.10159 -0.132644,-0.0593 -0.237066,-0.14676 -0.104422,-0.0875 -0.169333,-0.21449 -0.06209,-0.12982 -0.06209,-0.31327 0,-0.16368 0.06773,-0.31326 0.06773,-0.1524 0.197555,-0.26529 0.129823,-0.11571 0.318911,-0.18344 0.189089,-0.0677 0.4318,-0.0677 0.282222,0 0.505177,0.0903 0.225778,0.0875 0.389467,0.24271 z"
           style="font-family:Lato;-inkscape-font-specification:Lato"
           id="path66443" />
        <path
           d="m 63.090712,122.2141 q 0,-0.17498 -0.0508,-0.31891 -0.04798,-0.14676 -0.143933,-0.25118 -0.09313,-0.10725 -0.2286,-0.16369 -0.135466,-0.0593 -0.307622,-0.0593 -0.361244,0 -0.57291,0.21167 -0.208845,0.20884 -0.259645,0.58138 z m 0.4064,1.34055 q -0.09313,0.11289 -0.222955,0.19756 -0.129823,0.0818 -0.2794,0.13546 -0.146756,0.0536 -0.3048,0.079 -0.158044,0.0282 -0.313266,0.0282 -0.296333,0 -0.547511,-0.0988 -0.248355,-0.1016 -0.4318,-0.29351 -0.180622,-0.19473 -0.282222,-0.47978 -0.1016,-0.28504 -0.1016,-0.65475 0,-0.29916 0.09031,-0.5588 0.09313,-0.25965 0.265289,-0.44874 0.172155,-0.19191 0.420511,-0.29915 0.248355,-0.11007 0.558799,-0.11007 0.256822,0 0.474133,0.0875 0.220134,0.0847 0.378178,0.24836 0.160866,0.16086 0.251177,0.40075 0.09031,0.23707 0.09031,0.54187 0,0.11853 -0.0254,0.15804 -0.0254,0.0395 -0.09596,0.0395 h -1.910643 q 0.0085,0.27094 0.07338,0.47131 0.06773,0.20038 0.186266,0.33585 0.118534,0.13264 0.282222,0.20038 0.163689,0.0649 0.366889,0.0649 0.189089,0 0.324555,-0.0423 0.138289,-0.0451 0.237067,-0.096 0.09878,-0.0508 0.163688,-0.0931 0.06773,-0.0452 0.115711,-0.0452 0.06209,0 0.09596,0.048 z"
           style="font-family:Lato;-inkscape-font-specification:Lato"
           id="path66445" />
        <path
           d="m 66.070977,122.2141 q 0,-0.17498 -0.0508,-0.31891 -0.04798,-0.14676 -0.143933,-0.25118 -0.09313,-0.10725 -0.2286,-0.16369 -0.135467,-0.0593 -0.307622,-0.0593 -0.361244,0 -0.572911,0.21167 -0.208844,0.20884 -0.259644,0.58138 z m 0.4064,1.34055 q -0.09313,0.11289 -0.222956,0.19756 -0.129822,0.0818 -0.2794,0.13546 -0.146755,0.0536 -0.304799,0.079 -0.158045,0.0282 -0.313267,0.0282 -0.296333,0 -0.54751,-0.0988 -0.248356,-0.1016 -0.4318,-0.29351 -0.180622,-0.19473 -0.282222,-0.47978 -0.1016,-0.28504 -0.1016,-0.65475 0,-0.29916 0.09031,-0.5588 0.09313,-0.25965 0.265289,-0.44874 0.172155,-0.19191 0.42051,-0.29915 0.248356,-0.11007 0.5588,-0.11007 0.256822,0 0.474133,0.0875 0.220133,0.0847 0.378178,0.24836 0.160866,0.16086 0.251177,0.40075 0.09031,0.23707 0.09031,0.54187 0,0.11853 -0.0254,0.15804 -0.0254,0.0395 -0.09595,0.0395 h -1.910643 q 0.0085,0.27094 0.07338,0.47131 0.06773,0.20038 0.186267,0.33585 0.118533,0.13264 0.282222,0.20038 0.163689,0.0649 0.366889,0.0649 0.189088,0 0.324555,-0.0423 0.138289,-0.0451 0.237066,-0.096 0.09878,-0.0508 0.163689,-0.0931 0.06773,-0.0452 0.115711,-0.0452 0.06209,0 0.09596,0.048 z"
           style="font-family:Lato;-inkscape-font-specification:Lato"
           id="path66447" />
        <path
           d="m 40.603266,127.26587 q -0.02258,0.031 -0.04516,0.048 -0.02258,0.0169 -0.06209,0.0169 -0.04233,0 -0.09313,-0.0339 -0.0508,-0.0367 -0.127,-0.079 -0.07338,-0.0423 -0.183444,-0.0762 -0.107244,-0.0367 -0.265289,-0.0367 -0.211666,0 -0.372533,0.0762 -0.160866,0.0734 -0.270933,0.21449 -0.107244,0.14111 -0.163689,0.34149 -0.05362,0.20038 -0.05362,0.44873 0,0.25965 0.05927,0.46285 0.05927,0.20038 0.166511,0.33866 0.110066,0.13547 0.262466,0.20885 0.155222,0.0705 0.347133,0.0705 0.183445,0 0.301978,-0.0423 0.118533,-0.0452 0.194733,-0.0988 0.07902,-0.0536 0.129822,-0.0959 0.05362,-0.0452 0.104422,-0.0452 0.06209,0 0.09596,0.048 l 0.141111,0.18344 q -0.09313,0.11572 -0.211667,0.19756 -0.118533,0.0818 -0.256822,0.13829 -0.135466,0.0536 -0.285044,0.079 -0.149578,0.0254 -0.3048,0.0254 -0.268111,0 -0.499533,-0.0988 -0.228599,-0.0988 -0.397933,-0.28504 -0.169333,-0.18909 -0.265288,-0.46285 -0.09596,-0.27375 -0.09596,-0.62371 0,-0.31891 0.08749,-0.58984 0.09031,-0.27093 0.259644,-0.46567 0.172156,-0.19755 0.420511,-0.30762 0.251178,-0.11006 0.575733,-0.11006 0.301978,0 0.530577,0.0988 0.231422,0.096 0.409222,0.27376 z"
           style="font-family:Lato;-inkscape-font-specification:Lato"
           id="path66449" />
        <path
           d="m 42.46311,126.71272 q 0.313266,0 0.564444,0.10442 0.251177,0.10442 0.428977,0.29633 0.1778,0.19191 0.270933,0.46567 0.09596,0.27093 0.09596,0.60677 0,0.33867 -0.09596,0.6096 -0.09313,0.27094 -0.270933,0.46285 -0.1778,0.19191 -0.428977,0.29633 -0.251178,0.1016 -0.564444,0.1016 -0.316089,0 -0.570089,-0.1016 -0.251177,-0.10442 -0.428977,-0.29633 -0.1778,-0.19191 -0.273755,-0.46285 -0.09313,-0.27093 -0.09313,-0.6096 0,-0.33584 0.09313,-0.60677 0.09596,-0.27376 0.273755,-0.46567 0.1778,-0.19191 0.428977,-0.29633 0.254,-0.10442 0.570089,-0.10442 z m 0,2.55128 q 0.423333,0 0.632177,-0.28222 0.208844,-0.28504 0.208844,-0.79304 0,-0.51083 -0.208844,-0.79587 -0.208844,-0.28504 -0.632177,-0.28504 -0.214489,0 -0.375355,0.0734 -0.158045,0.0734 -0.265289,0.21167 -0.104422,0.13829 -0.158044,0.34149 -0.0508,0.20038 -0.0508,0.45438 0,0.508 0.208844,0.79304 0.211666,0.28222 0.640644,0.28222 z"
           style="font-family:Lato;-inkscape-font-specification:Lato"
           id="path66451" />
        <path
           d="m 46.829082,126.75787 -1.165577,2.85891 h -0.451556 l -1.165576,-2.85891 h 0.409221 q 0.06209,0 0.1016,0.0311 0.03951,0.031 0.05362,0.0734 l 0.72531,1.84009 q 0.03387,0.10442 0.05927,0.2032 0.0254,0.0988 0.04798,0.19756 0.02258,-0.0988 0.04798,-0.19756 0.0254,-0.0988 0.06209,-0.2032 l 0.733777,-1.84009 q 0.01693,-0.0452 0.05644,-0.0734 0.03951,-0.0311 0.09313,-0.0311 z"
           style="font-family:Lato;-inkscape-font-specification:Lato"
           id="path66453" />
        <path
           d="m 49.126373,127.87547 q 0,-0.17498 -0.0508,-0.31891 -0.04798,-0.14676 -0.143933,-0.25118 -0.09313,-0.10724 -0.2286,-0.16369 -0.135467,-0.0593 -0.307622,-0.0593 -0.361244,0 -0.572911,0.21166 -0.208844,0.20885 -0.259644,0.58138 z m 0.4064,1.34055 q -0.09313,0.11289 -0.222956,0.19756 -0.129822,0.0818 -0.279399,0.13547 -0.146756,0.0536 -0.3048,0.079 -0.158045,0.0282 -0.313267,0.0282 -0.296333,0 -0.54751,-0.0988 -0.248356,-0.1016 -0.4318,-0.29351 -0.180622,-0.19473 -0.282222,-0.47978 -0.1016,-0.28504 -0.1016,-0.65475 0,-0.29916 0.09031,-0.5588 0.09313,-0.25964 0.265289,-0.44873 0.172155,-0.19191 0.420511,-0.29916 0.248355,-0.11006 0.558799,-0.11006 0.256822,0 0.474133,0.0875 0.220133,0.0847 0.378178,0.24836 0.160866,0.16087 0.251177,0.40075 0.09031,0.23707 0.09031,0.54187 0,0.11853 -0.0254,0.15805 -0.0254,0.0395 -0.09596,0.0395 H 47.54593 q 0.0085,0.27093 0.07338,0.47131 0.06773,0.20037 0.186266,0.33584 0.118533,0.13265 0.282222,0.20038 0.163689,0.0649 0.366889,0.0649 0.189088,0 0.324555,-0.0423 0.138289,-0.0452 0.237066,-0.096 0.09878,-0.0508 0.163689,-0.0931 0.06773,-0.0452 0.115711,-0.0452 0.06209,0 0.09596,0.048 z"
           style="font-family:Lato;-inkscape-font-specification:Lato"
           id="path66455" />
        <path
           d="m 50.670127,127.33078 q 0.135466,-0.29351 0.333022,-0.4572 0.197555,-0.16651 0.482599,-0.16651 0.09031,0 0.172156,0.0198 0.08467,0.0197 0.149577,0.0621 l -0.03669,0.37535 q -0.01693,0.0706 -0.08467,0.0706 -0.03951,0 -0.115711,-0.0169 -0.0762,-0.0169 -0.172155,-0.0169 -0.135467,0 -0.242711,0.0395 -0.104423,0.0395 -0.189089,0.11853 -0.08185,0.0762 -0.149578,0.19191 -0.06491,0.11289 -0.118533,0.25965 v 1.80622 h -0.505177 v -2.85891 h 0.287866 q 0.08184,0 0.112889,0.0311 0.03104,0.031 0.04233,0.10724 z"
           style="font-family:Lato;-inkscape-font-specification:Lato"
           id="path66457" />
        <path
           d="m 54.104774,126.75787 v 2.85891 h -0.502355 v -2.85891 z m 0.107245,-0.89747 q 0,0.0734 -0.03104,0.13829 -0.02822,0.0621 -0.07902,0.11289 -0.04798,0.048 -0.115711,0.0762 -0.06491,0.0282 -0.138289,0.0282 -0.07338,0 -0.138289,-0.0282 -0.06209,-0.0282 -0.110066,-0.0762 -0.04798,-0.0508 -0.0762,-0.11289 -0.02822,-0.0649 -0.02822,-0.13829 0,-0.0734 0.02822,-0.13828 0.02822,-0.0677 0.0762,-0.11572 0.04798,-0.0508 0.110066,-0.079 0.06491,-0.0282 0.138289,-0.0282 0.07338,0 0.138289,0.0282 0.06773,0.0282 0.115711,0.079 0.0508,0.048 0.07902,0.11572 0.03104,0.0649 0.03104,0.13828 z"
           style="font-family:Lato;-inkscape-font-specification:Lato"
           id="path66459" />
        <path
           d="m 55.402994,127.17274 q 0.09313,-0.10443 0.197555,-0.18909 0.104422,-0.0847 0.220133,-0.14393 0.118533,-0.0621 0.248356,-0.0931 0.132644,-0.0339 0.285044,-0.0339 0.234244,0 0.412044,0.079 0.180622,0.0762 0.299155,0.22013 0.121356,0.14111 0.183445,0.34149 0.06209,0.20038 0.06209,0.44309 v 1.82033 h -0.505177 v -1.82033 q 0,-0.32456 -0.149578,-0.50236 -0.146755,-0.18062 -0.448733,-0.18062 -0.222955,0 -0.417688,0.10724 -0.191911,0.10725 -0.3556,0.29069 v 2.10538 h -0.505177 v -2.85891 h 0.301977 q 0.107245,0 0.132645,0.10442 z"
           style="font-family:Lato;-inkscape-font-specification:Lato"
           id="path66461" />
        <path
           d="m 62.726664,125.57254 -1.648176,4.04424 h -0.491066 l -1.648177,-4.04424 h 0.437444 q 0.07338,0 0.118533,0.0367 0.04516,0.0367 0.06773,0.0931 l 1.140177,2.85326 q 0.03669,0.096 0.07055,0.20885 0.03669,0.11289 0.06491,0.23707 0.02822,-0.12418 0.05927,-0.23707 0.03104,-0.11289 0.06773,-0.20885 l 1.137355,-2.85326 q 0.01693,-0.048 0.06491,-0.0875 0.0508,-0.0423 0.121355,-0.0423 z"
           style="font-family:Lato;-inkscape-font-specification:Lato"
           id="path66463" />
        <path
           d="m 64.380487,127.53116 q 0.237066,0 0.417688,-0.0564 0.183444,-0.0593 0.3048,-0.16368 0.124178,-0.10725 0.186266,-0.254 0.06209,-0.14676 0.06209,-0.32456 0,-0.36124 -0.237066,-0.54469 -0.237067,-0.18344 -0.7112,-0.18344 h -0.59831 v 1.52682 z m 1.868309,2.08562 h -0.485422 q -0.149577,0 -0.220133,-0.11571 l -1.049866,-1.44498 q -0.04798,-0.0677 -0.104422,-0.096 -0.05362,-0.031 -0.169333,-0.031 h -0.414866 v 1.68769 h -0.544689 v -4.04424 h 1.142999 q 0.383822,0 0.663222,0.079 0.2794,0.0762 0.460022,0.22296 0.183444,0.14675 0.270933,0.3556 0.08749,0.20602 0.08749,0.46284 0,0.21449 -0.06773,0.40075 -0.06773,0.18627 -0.197556,0.33585 -0.127,0.14675 -0.313266,0.25118 -0.183445,0.10442 -0.417689,0.15804 0.104422,0.0593 0.180622,0.17216 z"
           style="font-family:Lato;-inkscape-font-specification:Lato"
           id="path66465" />
        <path
           d="m 67.281723,125.57254 v 1.61431 q 0,0.127 -0.0056,0.24835 -0.0056,0.12136 -0.01411,0.24554 -0.0085,0.12135 -0.02258,0.25117 -0.01129,0.127 -0.02822,0.27376 h -0.338666 q -0.01693,-0.14676 -0.03104,-0.27376 -0.01129,-0.12982 -0.01976,-0.25117 -0.0085,-0.12418 -0.01411,-0.24554 -0.0056,-0.12135 -0.0056,-0.24835 v -1.61431 z m -0.601133,3.7338 q 0,-0.0734 0.0254,-0.13829 0.02822,-0.0649 0.0762,-0.11289 0.04798,-0.048 0.110067,-0.0762 0.06491,-0.0282 0.141111,-0.0282 0.07338,0 0.135466,0.0282 0.06491,0.0282 0.112889,0.0762 0.04798,0.048 0.0762,0.11289 0.02822,0.0649 0.02822,0.13829 0,0.0762 -0.02822,0.14111 -0.02822,0.0621 -0.0762,0.11006 -0.04798,0.048 -0.112889,0.0734 -0.06209,0.0282 -0.135466,0.0282 -0.0762,0 -0.141111,-0.0282 -0.06209,-0.0254 -0.110067,-0.0734 -0.04798,-0.048 -0.0762,-0.11006 -0.0254,-0.0649 -0.0254,-0.14111 z"
           style="font-family:Lato;-inkscape-font-specification:Lato"
           id="path66467" />
      </g>
      <path
         style="fill:none;stroke:#000000;stroke-width:1.05833;stroke-linecap:round;stroke-linejoin:round;stroke-dasharray:none;stroke-opacity:1;marker-end:url(#TriangleStart)"
         d="m 43.768041,117.34684 -8.866309,-8.27407"
         id="path63663"
         sodipodi:nodetypes="cc" />
    </g>
  </g>
</svg>
